<?xml version="1.0" encoding="utf-8"?>
<!-- Generator: Adobe Illustrator 15.0.2, SVG Export Plug-In . SVG Version: 6.00 Build 0)  -->
<!DOCTYPE svg PUBLIC "-//W3C//DTD SVG 1.1//EN" "http://www.w3.org/Graphics/SVG/1.1/DTD/svg11.dtd">
<svg version="1.1" id="Layer_1" xmlns="http://www.w3.org/2000/svg" xmlns:xlink="http://www.w3.org/1999/xlink" x="0px" y="0px"
	 width="1024px" height="1024px" viewBox="0 0 1024 1024" enable-background="new 0 0 1024 1024" xml:space="preserve">
<path d="M225,320.6L707,92.2c12.2,5,26.2,5.6,39-0.6c24-11.4,34.2-40,23-64.2c-11.4-24-40.2-34.2-64.2-22.8c-12.8,6-21.2,17-25,29.6
	L75.4,320.6H18V1024h960V320.6H225z M162.2,877.8h-32v-231h32V877.8z M278.2,877.8h-32v-231h32V877.8z M394.4,877.8h-32v-231h32
	V877.8z M510.4,877.8h-32v-231h32V877.8z M750.2,877.8c-63.8,0-115.4-51.8-115.4-115.6s51.8-115.4,115.4-115.4
	c63.8,0,115.6,51.8,115.6,115.4C865.8,826.2,814,877.8,750.2,877.8z M865.8,535.6H130.2V415.8h735.6V535.6z"/>
</svg>
